[Header]
FileType HTR
DataType HTRS
FileVersion 1
NumSegments 48
NumFrames 3
DataFrameRate 30
EulerRotationOrder ZYX
CalibrationUnits mm
RotationUnits Degrees
GlobalAxisofGravity Y
BoneLengthAxis Y
ScaleFactor 1.0
[SegmentNames&Hierarchy]
Wolf	GLOBAL
Becken	Wolf
Bauch	Becken
Bauch_001	Bauch
Brust	Bauch_001
Hals	Brust
Kopf_002	Hals
Kopf	Kopf_002
Unterkiefer	Kopf
Hals_fett	Unterkiefer
Maulunten	Unterkiefer
Mauloben	Kopf
MundW_L	Kopf
MundW_R	Kopf
Augen_con	Kopf
IK_Aug_R	Augen_con
IK_Aug_L	Augen_con
Aug_R	Kopf
aug_L	Kopf
Ohr_L	Kopf
Ohr_R	Kopf
Braun_O_L	Kopf
Braun_O_R	Kopf
aug_lied_O_L	Kopf
aug_lied_O_R	Kopf
aug_lied_U_L	Kopf
aug_lied_U_R	Kopf
Bauch_003	Brust
Schalterplatte_L	Bauch_003
Oberarm_L	Schalterplatte_L
Unterarm_L	Oberarm_L
Vorderpfote_L	Unterarm_L
Schalterplatte_R	Bauch_003
Oberarm_R	Schalterplatte_R
Unterarm_R	Oberarm_R
Vorderpfote_R	Unterarm_R
Schwanz	Becken
Schwanz_001	Schwanz
Schwanz_002	Schwanz_001
Schwanz_003	Schwanz_002
Oberschenkel_L	Becken
Unterschenkel_L	Oberschenkel_L
Pfote1_L	Unterschenkel_L
Pfote2_L	Pfote1_L
Oberschenkel_R	Becken
Unterschenkel_R	Oberschenkel_R
Pfote1_R	Unterschenkel_R
Pfote2_R	Pfote1_R
[BasePosition]
Wolf	0	0	0	0	0	0	1
Becken	0	0	0	0	0	0	1
Bauch	0	0	0	0	0	0	1
Bauch_001	0	0	0	0	0	0	1
Brust	0	0	0	0	0	0	1
Hals	0	0	0	0	0	0	1
Kopf_002	0	0	0	0	0	0	1
Kopf	0	0	0	0	0	0	1
Unterkiefer	0	0	0	0	0	0	1
Hals_fett	0	0	0	0	0	0	1
Maulunten	0	0	0	0	0	0	1
Mauloben	0	0	0	0	0	0	1
MundW_L	0	0	0	0	0	0	1
MundW_R	0	0	0	0	0	0	1
Augen_con	0	0	0	0	0	0	1
IK_Aug_R	0	0	0	0	0	0	1
IK_Aug_L	0	0	0	0	0	0	1
Aug_R	0	0	0	0	0	0	1
aug_L	0	0	0	0	0	0	1
Ohr_L	0	0	0	0	0	0	1
Ohr_R	0	0	0	0	0	0	1
Braun_O_L	0	0	0	0	0	0	1
Braun_O_R	0	0	0	0	0	0	1
aug_lied_O_L	0	0	0	0	0	0	1
aug_lied_O_R	0	0	0	0	0	0	1
aug_lied_U_L	0	0	0	0	0	0	1
aug_lied_U_R	0	0	0	0	0	0	1
Bauch_003	0	0	0	0	0	0	1
Schalterplatte_L	0	0	0	0	0	0	1
Oberarm_L	0	0	0	0	0	0	1
Unterarm_L	0	0	0	0	0	0	1
Vorderpfote_L	0	0	0	0	0	0	1
Schalterplatte_R	0	0	0	0	0	0	1
Oberarm_R	0	0	0	0	0	0	1
Unterarm_R	0	0	0	0	0	0	1
Vorderpfote_R	0	0	0	0	0	0	1
Schwanz	0	0	0	0	0	0	1
Schwanz_001	0	0	0	0	0	0	1
Schwanz_002	0	0	0	0	0	0	1
Schwanz_003	0	0	0	0	0	0	1
Oberschenkel_L	0	0	0	0	0	0	1
Unterschenkel_L	0	0	0	0	0	0	1
Pfote1_L	0	0	0	0	0	0	1
Pfote2_L	0	0	0	0	0	0	1
Oberschenkel_R	0	0	0	0	0	0	1
Unterschenkel_R	0	0	0	0	0	0	1
Pfote1_R	0	0	0	0	0	0	1
Pfote2_R	0	0	0	0	0	0	1
[Wolf]
13	0	0	0	-90	-0	0	1.0
14	0	0	0	-90	-0	0	1.0
15	0	0	0	-90	-0	0	1.0
[Becken]
13	0	0.311522007	-0.2204938233	-2.067962885	164.4212189	89.26520538	1.0
14	0	0.311522007	-0.2204938233	-2.067962885	164.4212189	89.26520538	1.0
15	0	0.3137220144	-0.2242937535	-2.067962885	164.4212189	89.26520538	1.0
[Bauch]
13	0.9984878302	-0.00741992658	-0.150611341	-6.458931239e-07	12.60522842	-8.201818247e-08	1.0
14	0.9984878302	-0.00741992658	-0.150611341	-6.458931239e-07	12.60522842	-8.201818247e-08	1.0
15	0.9984878302	-0.00741992658	-0.150611341	-6.458931239e-07	12.60522842	-8.201818247e-08	1.0
[Bauch_001]
13	1.071342349	0.006600080058	-0.1893585622	-1.568805601e-07	2.360082865	-2.503413654e-08	1.0
14	1.071342349	0.006600080058	-0.1893585622	-1.568805601e-07	2.360082865	-2.503413654e-08	1.0
15	1.071342349	0.006600080058	-0.1893585622	-1.568805601e-07	2.360082865	-2.503413654e-08	1.0
[Brust]
13	1.41907382	-0.01381989196	0.3623858392	3.618613846e-06	10.7627573	-4.096809789e-05	1.0
14	1.41907382	-0.01381989196	0.3623858392	3.618613846e-06	10.7627573	-4.096809789e-05	1.0
15	1.41907382	-0.01381989196	0.3623858392	3.618613846e-06	10.7627573	-4.096809789e-05	1.0
[Hals]
13	1.1844244	-0.01484991144	1.02827692	-4.51789947e-06	46.87745285	-2.16624926e-06	1.0
14	1.1844244	-0.01484991144	1.02827692	-4.51789947e-06	46.87745285	-2.16624926e-06	1.0
15	1.1844244	-0.01484991144	1.02827692	-4.51789947e-06	46.87745285	-2.16624926e-06	1.0
[Kopf_002]
13	1.75259161	3.012944944e-05	0.2651725411	0.006653842982	-165.1497192	0.002556535648	1.0
14	1.75259161	3.012944944e-05	0.2651725411	0.006653842982	-165.1497192	0.002556535648	1.0
15	1.75259161	3.012944944e-05	0.2651725411	0.006653842982	-165.1497192	0.002556535648	1.0
[Kopf]
13	1.015781879	8.032657206e-08	9.111317922e-08	0.06872025877	123.2280426	-0.02605217695	1.0
14	1.015781879	8.032657206e-08	9.111317922e-08	0.06872025877	123.2280426	-0.02605217695	1.0
15	1.015781879	8.032657206e-08	9.111317922e-08	0.06872025877	123.2280426	-0.02605217695	1.0
[Unterkiefer]
13	0.6370437145	0.004552738741	0.4060620368	5.412721157	-68.3888092	-3.09354353	1.0
14	0.6370437145	0.004552738741	0.4060620368	5.412721157	-68.3888092	-3.09354353	1.0
15	0.6370437145	0.004552738741	0.4060620368	5.412721157	-68.3888092	-3.09354353	1.0
[Hals_fett]
13	0.2998299599	0.007747137919	0.1206380203	-5.071650982	-59.35961533	5.585566998	1.0
14	0.2998299599	0.007747137919	0.1206380203	-5.071650982	-59.35961533	5.585566998	1.0
15	0.2998299599	0.007747137919	0.1206380203	-5.071650982	-59.35961533	5.585566998	1.0
[Maulunten]
13	0.08317943662	-0.007747350261	-0.1206459776	-3.32220912	38.97271347	-0.871876061	1.0
14	0.08317943662	-0.007747350261	-0.1206459776	-3.32220912	38.97271347	-0.871876061	1.0
15	0.08317943662	-0.007747350261	-0.1206459776	-3.32220912	38.97271347	-0.871876061	1.0
[Mauloben]
13	0.910148263	0.0004056794569	0.4003701806	-0.1032674983	-28.77768707	0.03543139994	1.0
14	0.910148263	0.0004056794569	0.4003701806	-0.1032674983	-28.77768707	0.03543139994	1.0
15	0.910148263	0.0004056794569	0.4003701806	-0.1032674983	-28.77768707	0.03543139994	1.0
[MundW_L]
13	0.673060894	-0.3618556261	0.3751286268	-179.8370972	-17.94884872	24.71397209	1.0
14	0.673060894	-0.3618556261	0.3751286268	-179.8370972	-17.94884872	24.71397209	1.0
15	0.673060894	-0.3618556261	0.3751286268	-179.8370972	-17.94884872	24.71397209	1.0
[MundW_R]
13	0.6732318401	0.3627035022	0.37398085	179.6653442	-18.02427101	-24.69083977	1.0
14	0.6732318401	0.3627035022	0.37398085	179.6653442	-18.02427101	-24.69083977	1.0
15	0.6732318401	0.3627035022	0.37398085	179.6653442	-18.02427101	-24.69083977	1.0
[Augen_con]
13	1.807372689	-0.0001604028512	0.1835819334	0.09822253883	157.1545258	0.02385936864	1.0
14	1.807372689	-0.0001604028512	0.1835819334	0.09822253883	157.1545258	0.02385936864	1.0
15	1.807372689	-0.0001604028512	0.1835819334	0.09822253883	157.1545258	0.02385936864	1.0
[IK_Aug_R]
13	0.3461304307	0.2943200469	-8.032657206e-08	-0.4194762409	-4.963055134	165.6946411	1.0
14	0.3461304307	0.2943200469	-8.032657206e-08	-0.4194762409	-4.963055134	165.6946411	1.0
15	0.3461304307	0.2943200469	-8.032657206e-08	-0.4194762409	-4.963055134	165.6946411	1.0
[IK_Aug_L]
13	0.3461307883	-0.2943199575	-1.629814861e-08	0.4194769561	-4.963055134	-165.6946411	1.0
14	0.3461307883	-0.2943199575	-1.629814861e-08	0.4194769561	-4.963055134	-165.6946411	1.0
15	0.3461307883	-0.2943199575	-1.629814861e-08	0.4194769561	-4.963055134	-165.6946411	1.0
[Aug_R]
13	1.0351547	0.2207805812	-0.09605748951	176.004776	-17.29163933	12.85548019	1.0
14	1.0351547	0.2207805812	-0.09605748951	176.004776	-17.29163933	12.85548019	1.0
15	1.0351547	0.2207805812	-0.09605748951	176.004776	-17.29163933	12.85548019	1.0
[aug_L]
13	1.035044074	-0.2215988934	-0.09535883367	-176.1891022	-17.33178139	-12.83103275	1.0
14	1.035044074	-0.2215988934	-0.09535883367	-176.1891022	-17.33178139	-12.83103275	1.0
15	1.035044074	-0.2215988934	-0.09535883367	-176.1891022	-17.33178139	-12.83103275	1.0
[Ohr_L]
13	0.6407760978	-0.3659991622	-0.6893320084	-24.34924507	53.07766342	-15.02013397	1.0
14	0.6407760978	-0.3659991622	-0.6893320084	-24.34924507	53.07766342	-15.02013397	1.0
15	0.6407760978	-0.3659991622	-0.6893320084	-24.34924507	53.07766342	-15.02013397	1.0
[Ohr_R]
13	0.6409583092	0.3634999394	-0.6904845238	24.05786133	53.12416077	14.75857162	1.0
14	0.6409583092	0.3634999394	-0.6904845238	24.05786133	53.12416077	14.75857162	1.0
15	0.6409583092	0.3634999394	-0.6904845238	24.05786133	53.12416077	14.75857162	1.0
[Braun_O_L]
13	0.9801794291	-0.3706048727	-0.3292538524	-143.3172302	-34.69635391	52.39493942	1.0
14	0.9801794291	-0.3706048727	-0.3292538524	-143.3172302	-34.69635391	52.39493942	1.0
15	0.9801794291	-0.3706048727	-0.3292538524	-143.3172302	-34.69635391	52.39493942	1.0
[Braun_O_R]
13	0.9803634882	0.3690741956	-0.3304223716	143.1826782	-34.83971786	-52.3467598	1.0
14	0.9803634882	0.3690741956	-0.3304223716	143.1826782	-34.83971786	-52.3467598	1.0
15	0.9803634882	0.3690741956	-0.3304223716	143.1826782	-34.83971786	-52.3467598	1.0
[aug_lied_O_L]
13	1.038881421	-0.3271433711	-0.1608108282	-175.8613434	-20.15596199	60.31666946	1.0
14	1.038881421	-0.3271433711	-0.1608108282	-175.8613434	-20.15596199	60.31666946	1.0
15	1.038881421	-0.3271433711	-0.1608108282	-175.8613434	-20.15596199	60.31666946	1.0
[aug_lied_O_R]
13	1.039044261	0.3261157274	-0.1618429124	175.7657928	-20.31323814	-60.31218338	1.0
14	1.039044261	0.3261157274	-0.1618429124	175.7657928	-20.31323814	-60.31218338	1.0
15	1.039044261	0.3261157274	-0.1618429124	175.7657928	-20.31323814	-60.31218338	1.0
[aug_lied_U_L]
13	1.021915555	-0.3312865496	-0.1338484734	-159.8099365	-28.7482872	60.17461395	1.0
14	1.021915555	-0.3312865496	-0.1338484734	-159.8099365	-28.7482872	60.17461395	1.0
15	1.021915555	-0.3312865496	-0.1338484734	-159.8099365	-28.7482872	60.17461395	1.0
[aug_lied_U_R]
13	1.02207756	0.3303526342	-0.1348843277	159.7071381	-28.90532684	-60.15359116	1.0
14	1.02207756	0.3303526342	-0.1348843277	159.7071381	-28.90532684	-60.15359116	1.0
15	1.02207756	0.3303526342	-0.1348843277	159.7071381	-28.90532684	-60.15359116	1.0
[Bauch_003]
13	1.444672227	0.03385011479	-1.56629622	-3.870021374e-06	-137.6799469	1.039222207e-05	1.0
14	1.444672227	0.03385011479	-1.56629622	-3.870021374e-06	-137.6799469	1.039222207e-05	1.0
15	1.444672227	0.03385011479	-1.56629622	-3.870021374e-06	-137.6799469	1.039222207e-05	1.0
[Schalterplatte_L]
13	0.8947012424	-0.3839259744	-0.004565421492	-23.37865067	73.9672699	-52.47122574	1.0
14	0.89328897	-0.3843306303	0.005687620025	-20.91804695	73.43582153	-50.00855255	1.0
15	0.897033751	-0.3847352862	0.01709281094	-18.96829033	72.94989777	-48.06938553	1.0
[Oberarm_L]
13	1.418636918	9.313225746e-08	1.303851604e-07	-78.34851074	-65.31939697	93.4437561	1.0
14	1.418636918	9.313225746e-08	1.303851604e-07	-79.17687988	-65.37682343	94.30298615	1.0
15	1.418636918	9.313225746e-08	1.303851604e-07	-80.23433685	-65.44612122	95.44959259	1.0
[Unterarm_L]
13	2.028227806	1.885928214e-07	1.862644972e-08	5.790810585	60.15903091	6.027021885	1.0
14	2.028227806	1.885928214e-07	1.862644972e-08	5.537618637	59.28811646	5.774418354	1.0
15	2.028227806	1.885928214e-07	1.862644972e-08	5.408351898	58.66752625	5.652196884	1.0
[Vorderpfote_L]
13	1.705947399	2.607703209e-07	2.305023372e-07	-1.392018557	94.43087006	-0.4662694633	1.0
14	1.705947399	2.607703209e-07	2.305023372e-07	-1.171106339	94.44930267	-0.2490145862	1.0
15	1.705947399	2.607703209e-07	2.305023372e-07	-1.135112643	94.32565308	-0.2120431215	1.0
[Schalterplatte_R]
13	0.8932014704	0.3828880191	0.005746161565	119.8124466	72.77414703	155.2955933	1.0
14	0.8948719501	0.3821007907	-0.005217511673	121.7857895	71.84378815	157.344986	1.0
15	0.9000989795	0.3821423948	-0.01618118584	122.9352341	71.24719238	158.5061951	1.0
[Oberarm_R]
13	1.418636441	2.235174179e-07	1.490116119e-07	125.0102158	-46.77223969	-153.9577484	1.0
14	1.418636441	2.235174179e-07	1.490116119e-07	124.5728226	-47.18796921	-153.3695679	1.0
15	1.418636441	2.235174179e-07	1.490116119e-07	123.7055435	-48.03619766	-152.0962219	1.0
[Unterarm_R]
13	2.028232098	1.350417733e-07	-7.450580597e-08	-30.06856346	76.86220551	-32.48159027	1.0
14	2.028232098	1.350417733e-07	-7.450580597e-08	-34.88415527	78.52301025	-37.15034866	1.0
15	2.028232098	1.350417733e-07	-7.450580597e-08	-41.53499985	80.35150146	-43.56216431	1.0
[Vorderpfote_R]
13	1.705937624	9.313230187e-09	7.101335342e-08	-7.922872543	-13.1983223	7.117530346	1.0
14	1.705937624	9.313230187e-09	7.101335342e-08	-8.075928688	-14.30828094	7.436745644	1.0
15	1.705937624	9.313230187e-09	7.101335342e-08	-8.030840874	-14.07713509	7.720263958	1.0
[Schwanz]
13	-0.08847680688	-1.338776023e-08	0.05883391947	0.002376843477	-121.0755081	-0.006373009644	1.0
14	-0.08847680688	-1.338776023e-08	0.05883391947	0.002376843244	-121.0755081	-0.006373009644	1.0
15	-0.09073613584	-1.338776023e-08	0.06029980257	0.009466130286	-121.2104797	-0.02547655813	1.0
[Schwanz_001]
13	0.9104326963	6.926712359e-08	1.564329999e-09	-0.6650298238	-7.361720562	0.6264746189	1.0
14	0.9104326963	6.926712359e-08	1.564329999e-09	-0.6650298238	-7.361720562	0.6264746189	1.0
15	0.9104326963	6.926712359e-08	1.564329999e-09	-0.6614450812	-7.517663479	0.6220836639	1.0
[Schwanz_002]
13	0.7855662704	6.053597446e-08	1.369335223e-07	-0.4010278285	-14.97256947	0.3100239336	1.0
14	0.7855662704	6.053597446e-08	1.369335223e-07	-0.4010280073	-14.97257042	0.3100243509	1.0
15	0.7855662704	6.053597446e-08	1.369335223e-07	-0.3899403811	-14.88487911	0.3013313413	1.0
[Schwanz_003]
13	0.8350353241	6.286426668e-08	8.163624443e-08	0.4237198532	11.59356976	-0.3297393322	1.0
14	0.8350353241	6.286426668e-08	8.163624443e-08	0.4237203598	11.59353733	-0.329739511	1.0
15	0.8350353241	6.286426668e-08	8.163624443e-08	0.4000740349	10.55029964	-0.3061746359	1.0
[Oberschenkel_L]
13	0.6990376115	-0.5837000012	-0.1164271384	11.78372288	-44.82143402	-5.516027451	1.0
14	0.6997005939	-0.5837000012	-0.1166247204	11.36452866	-41.27049255	-4.905527592	1.0
15	0.6953758597	-0.5837000012	-0.1108017489	11.03432941	-37.93577576	-4.391019821	1.0
[Unterschenkel_L]
13	1.686439037	1.238435061e-07	1.146242434e-09	-149.9979095	-59.58898163	161.3143158	1.0
14	1.686439037	1.234196532e-07	1.241762693e-09	-151.079361	-58.05126572	162.6849213	1.0
15	1.686439037	1.229957718e-07	1.337282951e-09	-151.7440643	-57.07089996	163.4941559	1.0
[Pfote1_L]
13	1.190900326	1.372626173e-07	-1.481161007e-07	1.036713362	48.02720261	-7.794054985	1.0
14	1.190900326	1.37835741e-07	-1.466833055e-07	0.9442720413	48.82225418	-7.917682648	1.0
15	1.190900326	1.384088648e-07	-1.452505103e-07	0.8524773121	49.57831955	-8.038986206	1.0
[Pfote2_L]
13	0.9876256585	1.510891821e-07	-9.227257181e-08	32.29173279	109.0445786	24.62765121	1.0
14	0.9876255989	1.493220481e-07	-9.064873296e-08	34.43678284	108.5665588	26.7118187	1.0
15	0.9876255989	1.475549283e-07	-8.902488702e-08	36.85692596	107.8293839	29.17357063	1.0
[Oberschenkel_R]
13	0.5498181581	0.5837000608	0.1138203517	-13.20833588	-53.56707001	7.393832684	1.0
14	0.537215054	0.5837000608	0.1161669493	-13.76410389	-56.04284668	8.07384491	1.0
15	0.5256580114	0.5837000608	0.1185135469	-14.34842968	-58.30069733	8.770270348	1.0
[Unterschenkel_R]
13	1.686449051	1.11758709e-07	3.725289943e-08	-82.56741333	-104.6454544	68.13473511	1.0
14	1.686449051	1.11758709e-07	3.725289943e-08	-87.6363678	-104.3294449	73.33435059	1.0
15	1.686449051	1.11758709e-07	3.725289943e-08	-91.74642181	-104.1931839	77.55237579	1.0
[Pfote1_R]
13	1.190900326	2.176966518e-07	1.11758709e-07	-5.73757267	64.24445343	1.483144522	1.0
14	1.190900326	2.176966518e-07	1.11758709e-07	-5.706161976	64.12275696	1.518128395	1.0
15	1.190900326	2.176966518e-07	1.11758709e-07	-5.487364292	63.2294693	1.763217926	1.0
[Pfote2_R]
13	0.9876256585	1.024454832e-07	-4.656610209e-09	-31.20743179	99.86845398	-19.12008095	1.0
14	0.9876256585	1.024454832e-07	-4.656610209e-09	-27.28813171	100.5087051	-15.30134869	1.0
15	0.9876256585	1.024454832e-07	-4.656610209e-09	-24.29510689	101.2933807	-12.44435692	1.0
[EndOfFile]
